{"accessors":[{"bufferView":0,"byteOffset":0,"componentType":5126,"count":1328,"max":[6,1.358384,1.358384],"min":[-6,-1.358384,-1.358384],"normalized":false,"type":"VEC3"},{"bufferView":1,"byteOffset":0,"componentType":5126,"count":1328,"max":[1,0.999998,0.70702,-1],"min":[-1,-0.944821,-0.999999,-1],"normalized":false,"type":"VEC4"},{"bufferView":2,"byteOffset":0,"componentType":5126,"count":1328,"max":[0.141413,0.999921,0.999921],"min":[-0.141539,-0.999921,-0.999921],"normalized":false,"type":"VEC3"},{"bufferView":3,"byteOffset":0,"componentType":5126,"count":1328,"max":[0.875,0.75],"min":[0.125,0],"normalized":false,"type":"VEC2"},{"bufferView":4,"byteOffset":0,"componentType":5125,"count":6120,"max":[1327],"min":[0],"normalized":false,"type":"SCALAR"}],"asset":{"generator":"Godot Engine v4.0.beta1.official@20d6672846b3fd1537603ac080116dcc914c10e3","version":"2.0"},"bufferViews":[{"buffer":0,"byteLength":15936,"byteOffset":0},{"buffer":0,"byteLength":21248,"byteOffset":15936},{"buffer":0,"byteLength":15936,"byteOffset":37184},{"buffer":0,"byteLength":10624,"byteOffset":53120},{"buffer":0,"byteLength":24480,"byteOffset":63744}],"buffers":[{"byteLength":88224,"uri":"sc_env_concept0.bin"}],"cameras":[{"perspective":{"yfov":1.30899691581726,"zfar":400,"znear":0.0500000007450581},"type":"perspective"}],"materials":[{"pbrMetallicRoughness":{"baseColorFactor":[0.99999988079071,0.99999988079071,0.99999988079071,1],"metallicFactor":0,"roughnessFactor":1}}],"meshes":[{"extras":{"targetNames":[]},"primitives":[{"attributes":{"NORMAL":2,"POSITION":0,"TANGENT":1,"TEXCOORD_0":3},"indices":4,"material":0,"mode":4}]}],"nodes":[{"children":[1,2,8,21,22],"extensions":{},"name":"Node3D"},{"extensions":{},"mesh":0,"name":"md_spiral_corridor","scale":[29.7360000610352,10,10]},{"children":[3,4,6],"extensions":{},"name":"nd_player","scale":[1,0.699999988079071,1],"translation":[170.5,0,0]},{"extensions":{},"name":"CollisionShape3D"},{"children":[5],"extensions":{},"name":"nd_ground_check","translation":[0,-1.42857003211975,0]},{"extensions":{},"name":"CollisionShape3D2"},{"children":[7],"extensions":{},"name":"nd_height_check","translation":[0,1.42857003211975,0]},{"extensions":{},"name":"CollisionShape2"},{"camera":0,"children":[9],"extensions":{},"name":"Camera3D"},{"children":[10,12,20],"extensions":{},"name":"nd_ui"},{"children":[11],"extensions":{},"name":"nd_shaders"},{"extensions":{},"name":"ColorRect"},{"children":[13,14,15],"extensions":{},"name":"nd_gui"},{"extensions":{},"name":"nd_aim_border"},{"extensions":{},"name":"nd_aim"},{"children":[16,17,18,19],"extensions":{},"name":"nd_health_container"},{"extensions":{},"name":"nd_point1"},{"extensions":{},"name":"nd_point2"},{"extensions":{},"name":"nd_point3"},{"extensions":{},"name":"nd_point4"},{"extensions":{},"name":"ColorRect2"},{"extensions":{},"name":"WorldEnvironment"},{"extensions":{},"name":"VoxelGI"}],"scene":0,"scenes":[{"nodes":[0]}]}